<?xml version="1.0" ?><svg height="117px" version="1.1" viewBox="0 0 117 117" width="117px" xmlns="http://www.w3.org/2000/svg" xmlns:xlink="http://www.w3.org/1999/xlink"><title/><desc/><defs/><g fill="none" fill-rule="evenodd" id="Page-1" stroke="none" stroke-width="1"><g fill-rule="nonzero" id="play-button"><path d="M58.5,116.7 C90.6,116.7 116.7,90.6 116.7,58.5 C116.7,26.4 90.6,0.3 58.5,0.3 C26.4,0.3 0.3,26.4 0.3,58.5 C0.3,90.6 26.4,116.7 58.5,116.7 Z M58.5,8.5 C86.1,8.5 108.5,30.9 108.5,58.5 C108.5,86.1 86.1,108.5 58.5,108.5 C30.9,108.5 8.5,86 8.5,58.5 C8.5,31 30.9,8.5 58.5,8.5 Z" fill="#4A4A4A" id="Shape"/><path d="M47.1,88.5 C47.6,88.7 48.1,88.8 48.7,88.8 C49.8,88.8 50.8,88.4 51.6,87.6 L78,61.1 C78.8,60.3 79.2,59.3 79.2,58.2 C79.2,57.1 78.8,56 78,55.3 L51.5,28.8 C50.3,27.6 48.6,27.3 47,27.9 C45.5,28.5 44.5,30 44.5,31.7 L44.5,84.7 C44.5,86.3 45.5,87.8 47.1,88.5 Z M52.7,41.6 L69.3,58.2 L52.7,74.8 L52.7,41.6 Z" fill="#17AB13" id="Shape"/></g></g></svg>